<svg width="150" height="294" viewBox="0 0 150 294" fill="none" xmlns="http://www.w3.org/2000/svg">
<rect x="69.838" y="86.2561" width="19" height="12.0726" fill="#FFEFE1"/>
<rect width="19.4314" height="36.5879" transform="matrix(0.999931 0.0117525 -0.0112485 0.999937 113.898 125.515)" fill="#FFEFE1"/>
<rect x="21.5676" y="123.94" width="28.2433" height="34.1182" fill="#FFEFE1"/>
<path d="M37.4866 98.1562L121.96 98.156L126.838 200.511H39.4722L37.4866 98.1562Z" fill="#565656"/>
<path d="M37.7434 98.156L61.1083 146.446H14.3784L30.42 101.292L31.4662 100.351L32.5124 99.7239L34.6048 98.7832L37.7434 98.156Z" fill="#565656"/>
<path d="M119.392 98.156L93.9732 146.446H144.811L127.359 101.292L126.221 100.351L125.083 99.7239L122.73 98.156H119.392Z" fill="#565656"/>
<path d="M90.8815 167.77C99.5664 193.912 101.857 207.637 84.7502 213.208C65.6717 213.208 35.5862 187.434 26.9013 161.292C23.0497 141.718 23.8201 131.294 41.0227 120.363C67.7257 107.652 89.0364 137.142 90.8815 167.77Z" fill="#FFB8B8"/>
<path d="M71.8947 169.815C68.9084 197.176 69.3673 211.051 85.6697 212.795C102.716 208.683 124.891 177.068 127.877 149.707C127.744 129.792 125.152 119.795 107.786 112.846C81.6066 106.209 67.9506 139.555 71.8947 169.815Z" fill="#FFB8B8"/>
<rect x="36.973" y="207.334" width="79.5948" height="40.4169" rx="12" fill="#CFDDFF"/>
<path d="M47.9063 178.33H83.5214L82.0853 243.944H46.7575L47.9063 178.33Z" fill="#646464"/>
<path d="M40.3109 177.415L124.527 194.999L130.689 204.081V231.763H40.3109V177.415Z" fill="#CFDDFF"/>
<path d="M4.03774 264.553C4.31477 264.553 4.5906 264.517 4.85815 264.445L26.5735 258.614C26.8304 258.545 27.0925 258.497 27.3571 258.47L49.433 256.192C52.3817 255.888 54.9461 258.202 54.9461 261.166V278.443C54.9461 281.205 52.7075 283.443 49.9461 283.443H6.88975C5.35824 283.443 3.91727 282.718 3.00528 281.487C2.78453 281.189 2.59876 280.867 2.45163 280.527L1.48503 278.291L0.594012 275.544L0.164798 273.31C0.055758 272.743 0.045891 272.161 0.135635 271.59L0.594012 268.675L0.945612 267.049C1.26038 265.593 2.54816 264.553 4.03774 264.553Z" fill="#EEEEEE"/>
<path d="M61.1916 264.094C61.6922 262.1 63.3622 260.616 65.401 260.353L80.6303 258.387C83.621 258.001 86.2704 260.33 86.2704 263.346V288.877C86.2704 291.638 84.0318 293.877 81.2704 293.877H64.9803C63.0614 293.877 61.3784 292.596 60.8667 290.747L60.2893 287.17L59.8563 283.593L59.5676 279.569L59.8563 274.65L60.2893 269.285L61.011 264.813L61.1916 264.094Z" fill="#EEEEEE"/>
<g filter="url(#filter0_d_17_1289)">
<path d="M64.7916 210.717C60.0503 196.922 66.2425 181.6 79.2217 175.01C91.0174 169.021 105.235 171.907 113.694 182.008L125.241 195.797C128.973 200.254 131.421 205.674 132.32 211.47L134.239 223.844C136.277 236.984 130.117 250.125 118.739 256.909L115.757 258.687C111.905 260.984 107.568 262.298 103.123 262.514C91.126 263.098 80.2427 255.672 76.3048 244.214L64.7916 210.717Z" fill="#CFDDFF"/>
</g>
<g filter="url(#filter1_d_17_1289)">
<rect width="40.5567" height="77.2494" rx="20.2784" transform="matrix(0.999951 -0.00994149 0.0095151 0.999955 35.2228 180.881)" fill="#CFDDFF"/>
</g>
<g filter="url(#filter2_d_17_1289)">
<rect width="36.0107" height="93.7495" rx="3" transform="matrix(0.999303 0.0373228 -0.035724 0.999362 56.6388 168.084)" fill="#CFDDFF"/>
</g>
<path d="M89.4692 267.217C89.3471 268.869 87.9088 270.108 86.2567 269.983L53.8292 267.529C52.1771 267.404 50.9367 265.963 51.0588 264.311L51.9064 252.842C52.0285 251.189 53.4668 249.951 55.119 250.076L87.5465 252.53C89.1986 252.655 90.4389 254.095 90.3168 255.748L89.4692 267.217Z" fill="#C4CAD8"/>
<g filter="url(#filter3_d_17_1289)">
<rect width="30.9221" height="82.8711" rx="3" transform="matrix(0.996483 0.0837919 -0.0802215 0.996777 28.5465 165.292)" fill="#CFDDFF"/>
</g>
<path d="M20.1399 249.004C20.0775 247.349 21.3691 245.954 23.0247 245.888L52.7358 244.719C54.3914 244.654 55.784 245.943 55.8464 247.599L56.1063 254.5C56.1687 256.156 54.8771 257.551 53.2215 257.616L23.5104 258.785C21.8548 258.85 20.4622 257.561 20.3998 255.905L20.1399 249.004Z" fill="#C4CAD8"/>
<path d="M128.949 152.369C130.686 152.032 132.325 153.266 132.481 155.03L133.381 165.173C133.531 166.854 132.27 168.338 130.59 168.459L102.881 170.457C101.328 170.569 99.9576 169.471 99.7263 167.929L98.7158 161.196C98.4759 159.597 99.5431 158.086 101.13 157.777L128.949 152.369Z" fill="#FFEFE1"/>
<rect width="14.3766" height="41.2934" rx="2" transform="matrix(0.124585 0.992209 -0.991504 0.130075 62.8535 155.543)" fill="#FFEFE1"/>
<g filter="url(#filter4_d_17_1289)">
<path d="M111.438 50.7632C106.273 76.1767 102.048 86.2927 79.7466 90.9806C56.7411 85.7992 49.9334 78.3972 45.7079 52.7371C46.8817 28.8041 58.3546 8.57202 79.7466 8.57202C101.139 8.57202 111.438 27.7342 111.438 50.7632Z" fill="#FFEFE1"/>
</g>
<path fill-rule="evenodd" clip-rule="evenodd" d="M80.4841 84.0402H74.6751C75.6313 84.1171 76.5997 84.1562 77.5791 84.1562C78.5568 84.1562 79.5256 84.1171 80.4841 84.0402ZM113.492 38.0439H42.5175C46.047 21.19 60.0538 8.57129 77.5791 8.57129C95.1233 8.57129 109.801 21.1744 113.492 38.0439Z" fill="#64533B"/>
<path d="M83.4786 26.4185L96.9869 37.0449L103.221 42.6902L63.6808 42.5242L83.4786 26.4185Z" fill="#FFEFE1"/>
<path d="M37.2803 66.3657C39.5191 86.9969 39.5531 94.8703 61.4001 97.7446C55.1347 86.6015 54.3005 85.5637 52.0666 64.9867C49.8328 44.4098 54.456 25.9215 49.3336 26.5025C44.2111 27.0835 35.0465 45.7888 37.2803 66.3657Z" fill="#64533B"/>
<path d="M120.618 60.3114C123.14 80.9085 125.072 88.5517 99.9674 97.1227C104.582 84.6593 105.308 83.4322 102.794 62.889C100.28 42.3459 90.1843 25.6433 96.3848 24.8505C102.585 24.0577 118.104 39.7683 120.618 60.3114Z" fill="#64533B"/>
<path d="M115.634 67.6967C113.426 87.1787 112.071 95.1253 97.6149 97.53C104.19 87.1032 105.069 86.1368 107.273 66.706C109.476 47.2753 104.398 29.6915 109.856 30.3382C115.314 30.9849 117.838 48.266 115.634 67.6967Z" fill="#64533B"/>
<path d="M120.318 52.7454C125.227 73.794 120.538 80.6751 114.122 90.2722C116.548 77.0561 117.025 75.7336 112.13 54.7401C107.236 33.7466 96.1805 17.3067 101.525 16.0047C106.87 14.7026 115.424 31.7519 120.318 52.7454Z" fill="#64533B"/>
<path d="M115.546 56.2566C115.546 60.4265 110.266 67.3601 107.438 67.3601C104.61 67.3601 104.764 63.0914 104.764 58.9214C104.764 54.7514 107.057 50.0386 109.885 50.0386C112.713 50.0386 115.546 52.0866 115.546 56.2566Z" fill="#FFEFE1"/>
<path d="M90.3529 19.8563C84.455 24.2948 77.7849 18.2696 84.2217 27.206C93.9784 37.179 99.7455 51.6573 111.438 53.1881C105.829 48.1001 111.438 44.5275 108.614 34.5544C102.177 25.618 96.2508 15.4178 90.3529 19.8563Z" fill="#64533B"/>
<path d="M40.059 56.2566C40.059 60.4265 45.5903 67.3601 48.5533 67.3601C51.5163 67.3601 51.3547 63.0914 51.3547 58.9214C51.3547 54.7514 48.9528 50.0386 45.9898 50.0386C43.0268 50.0386 40.059 52.0866 40.059 56.2566Z" fill="#FFEFE1"/>
<path d="M62.8179 17.9967C69.1125 20.8918 82.2579 16.9129 77.803 27.0327C73.3481 37.1526 59.7149 49.3247 49.0459 53.5397C44.5141 47.0274 36.7161 42.2542 44.6811 28.0823C49.136 17.9624 56.5234 15.1016 62.8179 17.9967Z" fill="#64533B"/>
<path d="M115.033 45.7885C115.033 52.8844 112.214 54.7151 108.338 57.278C110.805 53.2506 106.817 47.6148 106.817 40.5376C106.817 33.4603 107.922 32.6079 110.452 32.6079C112.982 32.6079 115.033 38.7113 115.033 45.7885Z" fill="#64533B"/>
<path d="M46.2995 66.4592C46.8965 80.7489 52.3379 84.2044 59.8232 89.0478C54.8576 81.1396 54.1649 80.3936 53.5686 66.1414C52.9724 51.8893 58.5253 39.3331 53.7802 39.5405C49.0352 39.7479 45.7033 52.207 46.2995 66.4592Z" fill="#64533B"/>
<path d="M110.807 65.3854C111.406 79.6751 105.59 83.6226 97.5976 89.1425C102.482 80.8038 103.195 79.9964 102.599 65.7442C102.003 51.492 94.6379 39.5004 99.9958 39.2662C105.354 39.0321 110.211 51.1332 110.807 65.3854Z" fill="#64533B"/>
<path d="M83.4059 9.82832C85.5898 14.1317 82.147 20.3844 75.7162 23.7941C69.2855 27.2038 49.7771 30.4981 47.5932 26.1947C45.6754 22.0395 58.4169 10.6049 64.8476 7.19528C71.2784 3.78562 81.2221 5.52489 83.4059 9.82832Z" fill="#64533B"/>
<path d="M78.4183 9.86458C79.9069 6.00549 88.5675 3.87827 94.389 6.22462C109.109 14.1132 115.522 37.7089 114.033 41.568C112.545 45.4271 93.0204 24.4147 87.1988 22.0684C81.3773 19.722 76.9296 13.7237 78.4183 9.86458Z" fill="#64533B"/>
<path d="M64.5193 18.6225C61.4299 22.3728 55.4785 30.3358 55.5059 33.9223C56.6537 29.8989 62.7905 22.7983 65.8717 19.0577C68.9528 15.317 72.7607 13.6248 71.7258 12.7341C70.6909 11.8434 67.6005 14.8819 64.5193 18.6225Z" fill="#574731"/>
<path d="M102.871 31.7631C105.681 38.0273 108.736 49.9255 108.071 54.4512C107.492 48.7953 104.076 37.8974 101.274 31.6496C98.4719 25.4018 94.4909 21.3896 95.8116 20.7707C97.1322 20.1518 100.069 25.5154 102.871 31.7631Z" fill="#574731"/>
<rect x="73.4376" y="79.4326" width="8.72975" height="5.77385" fill="#FFEFE1"/>
<path d="M83.0406 46.7158L86.6322 46.7156L90.5832 46.7158L94.5341 46.7156L98.3055 46.7158L99.1137 48.2903H90.5832H82.6812L83.0406 46.7158Z" fill="#594C3A"/>
<path d="M58.3919 46.7158L61.9835 46.7156L65.9345 46.7158L69.8854 46.7156L73.6568 46.7158L74.465 48.2903H65.9345H58.0325L58.3919 46.7158Z" fill="#594C3A"/>
<ellipse cx="88.843" cy="56.6" rx="3.08109" ry="3.93671" fill="#64533B"/>
<ellipse cx="66.2484" cy="56.6" rx="3.08109" ry="3.93671" fill="#64533B"/>
<line x1="0.5" y1="-0.5" x2="7.7815" y2="-0.5" transform="matrix(-0.310037 0.950724 -0.946565 -0.322514 76.5187 56.8625)" stroke="#64533B" stroke-linecap="round"/>
<line x1="78.5862" y1="64.7112" x2="74.9646" y2="64.7112" stroke="#64533B" stroke-linecap="round"/>
<rect x="74.4647" y="64.2112" width="0.513515" height="0.524895" fill="#64533B"/>
<rect x="73.9511" y="64.7358" width="0.513515" height="0.524895" fill="#FFEFE1"/>
<path d="M68.4389 69.4597L70.1702 71.2322L72.5647 72.2451L73.8708 72.7515L75.3946 73.2579L77.7892 73.2579L80.4014 73.2579L82.7959 73.0047L85.1905 71.9919L87.1599 70.4726" stroke="#5B3E3E"/>
<path fill-rule="evenodd" clip-rule="evenodd" d="M78.8968 109.052C86.9837 109.001 93.5152 105.009 93.4854 100.137C93.4815 99.5 93.3657 98.8797 93.1493 98.2825L64.7459 97.8946C64.3855 98.6677 64.195 99.4828 64.2002 100.324C64.23 105.196 70.8099 109.104 78.8968 109.052Z" fill="#FBF4EE"/>
<rect width="12.8925" height="3.64652" transform="matrix(0.930044 -0.367447 0.353696 0.93536 57.5137 156.432)" fill="#FFEFE1"/>
<rect width="30.9199" height="12.4013" transform="matrix(0.999931 0.0117525 -0.0112485 0.999937 71.7852 157.694)" fill="#FFEFE1"/>
<rect width="20.4412" height="11.2391" transform="matrix(0.999931 0.0117525 -0.0112485 0.999937 51.9914 159.108)" fill="#FFEFE1"/>
<rect width="12.933" height="4.33585" transform="matrix(0.848696 0.528881 -0.512245 0.858839 76.6807 151.759)" fill="#FFEFE1"/>
<defs>
<filter id="filter0_d_17_1289" x="59.2045" y="171.912" width="79.4207" height="98.6343" filterUnits="userSpaceOnUse" color-interpolation-filters="sRGB">
<feFlood flood-opacity="0" result="BackgroundImageFix"/>
<feColorMatrix in="SourceAlpha" type="matrix" values="0 0 0 0 0 0 0 0 0 0 0 0 0 0 0 0 0 0 127 0" result="hardAlpha"/>
<feOffset dy="4"/>
<feGaussianBlur stdDeviation="2"/>
<feComposite in2="hardAlpha" operator="out"/>
<feColorMatrix type="matrix" values="0 0 0 0 0 0 0 0 0 0 0 0 0 0 0 0 0 0 0.25 0"/>
<feBlend mode="normal" in2="BackgroundImageFix" result="effect1_dropShadow_17_1289"/>
<feBlend mode="normal" in="SourceGraphic" in2="effect1_dropShadow_17_1289" result="shape"/>
</filter>
<filter id="filter1_d_17_1289" x="31.4148" y="180.678" width="48.9057" height="85.2478" filterUnits="userSpaceOnUse" color-interpolation-filters="sRGB">
<feFlood flood-opacity="0" result="BackgroundImageFix"/>
<feColorMatrix in="SourceAlpha" type="matrix" values="0 0 0 0 0 0 0 0 0 0 0 0 0 0 0 0 0 0 127 0" result="hardAlpha"/>
<feOffset dy="4"/>
<feGaussianBlur stdDeviation="2"/>
<feComposite in2="hardAlpha" operator="out"/>
<feColorMatrix type="matrix" values="0 0 0 0 0 0 0 0 0 0 0 0 0 0 0 0 0 0 0.25 0"/>
<feBlend mode="normal" in2="BackgroundImageFix" result="effect1_dropShadow_17_1289"/>
<feBlend mode="normal" in="SourceGraphic" in2="effect1_dropShadow_17_1289" result="shape"/>
</filter>
<filter id="filter2_d_17_1289" x="49.3949" y="168.194" width="47.1243" height="102.814" filterUnits="userSpaceOnUse" color-interpolation-filters="sRGB">
<feFlood flood-opacity="0" result="BackgroundImageFix"/>
<feColorMatrix in="SourceAlpha" type="matrix" values="0 0 0 0 0 0 0 0 0 0 0 0 0 0 0 0 0 0 127 0" result="hardAlpha"/>
<feOffset dy="4"/>
<feGaussianBlur stdDeviation="2"/>
<feComposite in2="hardAlpha" operator="out"/>
<feColorMatrix type="matrix" values="0 0 0 0 0 0 0 0 0 0 0 0 0 0 0 0 0 0 0.25 0"/>
<feBlend mode="normal" in2="BackgroundImageFix" result="effect1_dropShadow_17_1289"/>
<feBlend mode="normal" in="SourceGraphic" in2="effect1_dropShadow_17_1289" result="shape"/>
</filter>
<filter id="filter3_d_17_1289" x="18.1293" y="165.533" width="44.9997" height="92.7136" filterUnits="userSpaceOnUse" color-interpolation-filters="sRGB">
<feFlood flood-opacity="0" result="BackgroundImageFix"/>
<feColorMatrix in="SourceAlpha" type="matrix" values="0 0 0 0 0 0 0 0 0 0 0 0 0 0 0 0 0 0 127 0" result="hardAlpha"/>
<feOffset dy="4"/>
<feGaussianBlur stdDeviation="2"/>
<feComposite in2="hardAlpha" operator="out"/>
<feColorMatrix type="matrix" values="0 0 0 0 0 0 0 0 0 0 0 0 0 0 0 0 0 0 0.25 0"/>
<feBlend mode="normal" in2="BackgroundImageFix" result="effect1_dropShadow_17_1289"/>
<feBlend mode="normal" in="SourceGraphic" in2="effect1_dropShadow_17_1289" result="shape"/>
</filter>
<filter id="filter4_d_17_1289" x="41.7079" y="8.57202" width="73.7299" height="90.4084" filterUnits="userSpaceOnUse" color-interpolation-filters="sRGB">
<feFlood flood-opacity="0" result="BackgroundImageFix"/>
<feColorMatrix in="SourceAlpha" type="matrix" values="0 0 0 0 0 0 0 0 0 0 0 0 0 0 0 0 0 0 127 0" result="hardAlpha"/>
<feOffset dy="4"/>
<feGaussianBlur stdDeviation="2"/>
<feComposite in2="hardAlpha" operator="out"/>
<feColorMatrix type="matrix" values="0 0 0 0 0 0 0 0 0 0 0 0 0 0 0 0 0 0 0.25 0"/>
<feBlend mode="normal" in2="BackgroundImageFix" result="effect1_dropShadow_17_1289"/>
<feBlend mode="normal" in="SourceGraphic" in2="effect1_dropShadow_17_1289" result="shape"/>
</filter>
</defs>
</svg>
