<svg width="157" height="312" viewBox="0 0 157 312" fill="none" xmlns="http://www.w3.org/2000/svg">
<rect x="72.135" y="92.3608" width="19.625" height="12.7715" fill="#FFF8F2"/>
<rect width="29.1787" height="38.7059" transform="matrix(0.999928 0.0120369 -0.0109827 0.99994 117.645 133.891)" fill="#FFF8F2"/>
<rect x="22.2771" y="132.225" width="29.1723" height="36.0933" fill="#FFF8F2"/>
<path d="M38.7196 104.948L131.01 104.947V213.227H40.7705L38.7196 104.948Z" fill="#A7469D"/>
<path d="M40.0456 105.03L64.179 156.116H15.9121L32.4813 108.348L33.562 107.352L34.6426 106.689L36.8038 105.694L40.0456 105.03Z" fill="#A7469D"/>
<path d="M130.745 104.947L104.49 156.033H157L140.292 110.5L139.189 108.834L137.11 107.269L134.723 106.058L130.745 104.947Z" fill="#A7469D"/>
<rect x="38.1891" y="220.446" width="82.2129" height="42.7567" rx="12" fill="#646464"/>
<path d="M49.4818 189.766H86.2684L84.785 259.177H48.2952L49.4818 189.766Z" fill="#646464"/>
<path d="M41.6366 188.796L128.623 207.398L134.988 217.006V246.291H41.6366V188.796Z" fill="#646464"/>
<path d="M4.16382 280.979C4.45437 280.979 4.74361 280.94 5.02377 280.863L27.4522 274.695C27.7145 274.623 27.9822 274.572 28.2527 274.544L51.2281 272.116C54.1809 271.805 56.7534 274.12 56.7534 277.089V295.963C56.7534 298.724 54.5148 300.963 51.7534 300.963H7.15509C5.5513 300.963 4.03713 300.183 3.09685 298.883C2.8748 298.577 2.68661 298.243 2.53931 297.894L1.53388 295.513L0.61355 292.606L0.157234 290.174C0.0531626 289.619 0.0437433 289.051 0.129376 288.493L0.61355 285.339L0.990706 283.553C1.30731 282.053 2.63088 280.979 4.16382 280.979Z" fill="#2C2C2C"/>
<path d="M63.248 280.315C63.7386 278.314 65.4064 276.818 67.449 276.548L83.4529 274.433C86.4485 274.037 89.1082 276.368 89.1082 279.39V307C89.1082 309.761 86.8696 312 84.1082 312H67.1932C65.1693 312 63.3967 310.642 62.8689 308.688L62.2725 304.904L61.8253 301.12L61.5271 296.863L61.8253 291.66L62.2725 285.984L63.018 281.253L63.248 280.315Z" fill="#363636"/>
<g filter="url(#filter0_d_17_1580)">
<path d="M66.795 223.643C61.9729 209.274 68.4193 193.223 81.8088 186.261C93.9946 179.924 108.626 182.882 117.246 193.425L129.734 208.698C133.346 213.117 135.713 218.483 136.583 224.232L138.816 238.977C140.823 252.228 134.65 265.56 123.299 272.492L119.675 274.705C115.626 277.178 111.067 278.594 106.405 278.826C94.0608 279.442 82.9353 271.74 78.9311 259.808L66.795 223.643Z" fill="#646464"/>
</g>
<g filter="url(#filter1_d_17_1580)">
<rect width="41.8908" height="81.7212" rx="20.9454" transform="matrix(0.999948 -0.0101821 0.00929028 0.999957 36.3813 192.463)" fill="#646464"/>
</g>
<g filter="url(#filter2_d_17_1580)">
<rect width="37.1965" height="99.1738" rx="3" transform="matrix(0.999269 0.0382248 -0.0348809 0.999391 58.5018 178.924)" fill="#646464"/>
</g>
<path d="M92.3995 283.969C92.2803 285.621 90.8445 286.857 89.1926 286.729L55.5008 284.118C53.8489 283.99 52.6065 282.547 52.7257 280.894L53.6261 268.415C53.7454 266.763 55.1811 265.527 56.8331 265.655L90.5248 268.266C92.1767 268.394 93.4192 269.837 93.2999 271.49L92.3995 283.969Z" fill="#858585"/>
<g filter="url(#filter3_d_17_1580)">
<rect width="31.9447" height="87.6554" rx="3" transform="matrix(0.996312 0.0858051 -0.0783376 0.996927 29.4856 175.971)" fill="#646464"/>
</g>
<path d="M20.7958 264.355C20.7349 262.699 22.0276 261.303 23.6831 261.236L54.569 259.991C56.2245 259.925 57.6159 261.213 57.6768 262.868L57.958 270.516C58.0189 272.172 56.7262 273.568 55.0707 273.635L24.1849 274.88C22.5293 274.946 21.1379 273.658 21.077 272.003L20.7958 264.355Z" fill="#858585"/>
<path d="M139.118 161.104C140.87 160.754 142.511 162.009 142.638 163.794L143.43 174.971C143.546 176.622 142.313 178.079 140.671 178.23L106.224 181.388C104.652 181.532 103.258 180.425 103.038 178.858L101.998 171.445C101.774 169.85 102.844 168.342 104.422 168.027L139.118 161.104Z" fill="#FFF8F2"/>
<rect width="18.117" height="42.6693" rx="2" transform="matrix(0.121685 0.992569 -0.991093 0.133168 64.5667 162.765)" fill="#FFF8F2"/>
<g filter="url(#filter4_d_17_1580)">
<path d="M115.098 54.8119C109.763 81.6966 105.399 92.3982 82.364 97.3575C58.6018 91.8762 51.5702 84.0457 47.2057 56.9001C48.418 31.5815 60.2683 10.1782 82.364 10.1782C104.46 10.1782 115.098 30.4497 115.098 54.8119Z" fill="#FFF8F2"/>
</g>
<path fill-rule="evenodd" clip-rule="evenodd" d="M83.1284 90.0149H77.1228C78.1113 90.0964 79.1125 90.1379 80.125 90.1379C81.1358 90.1379 82.1374 90.0964 83.1284 90.0149ZM117.219 41.3558H43.9102C47.5558 23.5264 62.0234 10.1772 80.125 10.1772C98.2462 10.1772 113.406 23.5098 117.219 41.3558Z" fill="#303030"/>
<path d="M86.2187 29.0586L100.171 40.3002L106.611 46.2723L65.7698 46.0967L86.2187 29.0586Z" fill="#FFF8F2"/>
<path d="M119.341 60.6243C119.341 65.0357 113.887 72.3707 110.966 72.3707C108.045 72.3707 108.204 67.8549 108.204 63.4435C108.204 59.0321 110.572 54.0464 113.493 54.0464C116.415 54.0464 119.341 56.213 119.341 60.6243Z" fill="#FFF8F2"/>
<path d="M93.319 22.1153C87.2271 26.8108 80.3376 20.4368 86.9861 29.8905C97.0638 40.4408 103.021 55.7573 115.098 57.3767C109.304 51.9942 115.098 48.2147 112.18 37.6643C105.532 28.2105 99.4108 17.4199 93.319 22.1153Z" fill="#303030"/>
<path d="M41.3711 60.6243C41.3711 65.0357 47.0844 72.3707 50.1448 72.3707C53.2053 72.3707 53.0384 67.8549 53.0384 63.4435C53.0384 59.0321 50.5574 54.0464 47.497 54.0464C44.4365 54.0464 41.3711 56.213 41.3711 60.6243Z" fill="#FFF8F2"/>
<path d="M64.8785 20.1471C71.3801 23.2098 84.1204 19.0132 79.519 29.719C74.9176 40.4247 57.9272 53.7622 46.9072 58.2213C42.2264 51.332 40.1732 44.6917 44.7747 33.986C49.3761 23.2802 58.3769 17.0843 64.8785 20.1471Z" fill="#303030"/>
<path d="M79.0045 39.1306C77.9612 45.7491 85.2851 48.0096 89.9034 45.9933C85.8031 44.7224 81.9048 46.1309 82.945 39.5297C83.9851 32.9284 88.0332 28.356 85.6598 27.9462C83.2865 27.5363 80.0446 32.5293 79.0045 39.1306Z" fill="#303030"/>
<path d="M76.8827 39.6851C75.8394 46.3037 81.6439 48.7018 86.2622 46.6854C82.1619 45.4145 79.7831 46.6855 80.8232 40.0843C81.8634 33.483 85.4903 28.5429 83.117 28.1331C80.7436 27.7232 77.9229 33.0839 76.8827 39.6851Z" fill="#303030"/>
<path d="M73.8755 38.9859C72.6559 46.722 81.2782 49.8423 87.9547 47.7063C81.8837 46 78.4556 47.3738 79.6714 39.6579C80.8872 31.942 85.9732 26.314 82.4745 25.7098C78.9757 25.1056 75.0913 31.27 73.8755 38.9859Z" fill="#303030"/>
<path d="M72.1428 41.0268C73.2884 50.251 84.3779 50.6051 91.76 45.7171C83.8085 46.0238 80.5524 48.8486 79.409 39.6487C78.2655 30.4488 82.5307 22.1878 78.077 22.7945C73.6232 23.4012 70.9993 31.8269 72.1428 41.0268Z" fill="#303030"/>
<path d="M118.811 49.5496C118.811 57.0563 115.9 58.9929 111.896 61.7042C114.444 57.4436 110.324 51.4817 110.324 43.9947C110.324 36.5077 111.466 35.606 114.08 35.606C116.693 35.606 118.811 42.0627 118.811 49.5496Z" fill="#303030"/>
<path d="M45.4842 54.3556C46.2704 61.0131 48.7958 62.4298 52.2731 64.4209C49.7945 60.9055 49.4618 60.5821 48.6774 53.9422C47.8929 47.3023 49.8815 41.231 47.7971 41.5009C45.7127 41.7708 44.6998 47.7157 45.4842 54.3556Z" fill="#303030"/>
<path d="M85.3753 10.3974C87.631 14.95 84.0749 21.5646 77.4326 25.1717C70.7904 28.7787 50.6402 32.2638 48.3845 27.7113C46.4036 23.3155 59.5642 11.219 66.2065 7.61194C72.8488 4.00489 83.1196 5.84485 85.3753 10.3974Z" fill="#303030"/>
<path d="M80.9919 11.5462C82.5295 7.46372 91.4749 5.21335 97.4879 7.69553C112.692 16.0408 119.316 41.0025 117.778 45.085C116.241 49.1675 96.0743 26.9387 90.0612 24.4565C84.0482 21.9743 79.4542 15.6287 80.9919 11.5462Z" fill="#303030"/>
<path d="M78.0188 37.9016C77.2798 42.5894 80.1177 46.9634 83.6248 45.5761C80.4845 44.6351 79.1216 42.3474 79.8584 37.6718C80.5951 32.9962 83.6449 29.7893 81.8301 29.4759C80.0153 29.1624 78.7555 33.226 78.0188 37.9016Z" fill="#383838"/>
<path d="M94.5553 17.5292C98.0645 20.5421 102.583 27.9482 102.583 32.113C101.257 27.9482 96.5369 21.6204 93.0371 18.6151C89.5374 15.6099 85.2374 15.2893 86.3945 13.8125C87.5515 12.3358 91.0555 14.5239 94.5553 17.5292Z" fill="#383838"/>
<path d="M92.9434 17.7969C96.214 21.2467 100.116 29.2335 99.7508 33.4196C98.78 29.0742 94.5807 22.1471 91.3189 18.7061C88.0572 15.2652 83.754 14.4265 85.049 13.0811C86.3439 11.7358 89.6817 14.356 92.9434 17.7969Z" fill="#383838"/>
<path d="M74.0268 38.452C73.4738 41.9601 75.6508 45.2425 78.3251 44.2129C75.9253 43.5002 74.8794 41.7836 75.4307 38.2847C75.982 34.7858 78.3028 32.3926 76.9165 32.1532C75.5302 31.9138 74.5781 34.9531 74.0268 38.452Z" fill="#383838"/>
<rect x="75.8474" y="85.1421" width="9.0169" height="6.1081" fill="#FFF8F2"/>
<path d="M85.766 49.6035L89.4757 49.603L93.5566 49.6035L97.6376 49.603L101.533 49.6035L102.368 52.3794H93.5566H85.3948L85.766 49.6035Z" fill="#282828"/>
<path d="M60.3066 49.6035L64.0164 49.603L68.0973 49.6035L72.1782 49.603L76.0737 49.6035L76.9084 52.3794H68.0973H59.9354L60.3066 49.6035Z" fill="#282828"/>
<ellipse cx="91.7597" cy="60.9864" rx="3.18243" ry="4.16462" fill="#303030"/>
<ellipse cx="68.4221" cy="60.9864" rx="3.18243" ry="4.16462" fill="#303030"/>
<line x1="0.5" y1="-0.5" x2="8.24124" y2="-0.5" transform="matrix(-0.303393 0.952866 -0.944162 -0.329481 79.0302 61.2637)" stroke="#303030" stroke-linecap="round"/>
<line x1="81.1819" y1="69.5381" x2="77.4082" y2="69.5381" stroke="#303030" stroke-linecap="round"/>
<rect x="76.9084" y="69.0381" width="0.530406" height="0.555282" fill="#303030"/>
<rect x="76.3781" y="69.5938" width="0.530406" height="0.555282" fill="#FFF8F2"/>
<path d="M70.6843 74.5913L72.4726 76.4664L74.9459 77.5379L76.2949 78.0737L77.8688 78.6094L80.3422 78.6094L83.0403 78.6094L85.5136 78.3415L87.9869 77.2701L90.0211 75.6628" stroke="black"/>
<line x1="1.5" y1="-1.5" x2="38.5101" y2="-1.5" transform="matrix(0.77633 0.6177 -0.557803 0.840163 30.245 110.504)" stroke="#458D10" stroke-width="3" stroke-linecap="round"/>
<line x1="1.5" y1="-1.5" x2="93.7587" y2="-1.5" transform="matrix(0.467807 0.881078 -0.891209 0.45754 38.4158 101.55)" stroke="#458D10" stroke-width="3" stroke-linecap="round"/>
<line x1="1" y1="-1" x2="47.9891" y2="-1" transform="matrix(0.64852 0.753603 -0.801336 0.606244 34.5647 107.871)" stroke="#458D10" stroke-width="2" stroke-linecap="round"/>
<line x1="1" y1="-1" x2="25.8089" y2="-1" transform="matrix(0.842857 0.518355 -0.439095 0.9117 35.0317 119.138)" stroke="#458D10" stroke-width="2" stroke-linecap="round"/>
<line x1="1.5" y1="-1.5" x2="93.7587" y2="-1.5" transform="matrix(0.467807 0.881078 -0.891209 0.45754 43.7469 104.624)" stroke="#458D10" stroke-width="3" stroke-linecap="round"/>
<line x1="1.5" y1="-1.5" x2="42.5495" y2="-1.5" transform="matrix(0.160029 0.990099 -0.984825 0.147127 49.4286 95.7163)" stroke="#458D10" stroke-width="3" stroke-linecap="round"/>
<line x1="1.5" y1="-1.5" x2="45.8129" y2="-1.5" transform="matrix(0.0462559 1.00361 -0.987205 0.127654 55.764 95.9546)" stroke="#458D10" stroke-width="3" stroke-linecap="round"/>
<line x1="1.5" y1="-1.5" x2="46.1864" y2="-1.5" transform="matrix(0.392714 0.918515 -0.853742 0.526871 56.0811 138.205)" stroke="#458D10" stroke-width="3" stroke-linecap="round"/>
<path d="M33.6674 101.756C35.0932 105.654 31.8066 111.594 28.2635 111.898C23.8531 113.601 19.1219 111.822 17.696 107.924C16.2702 104.027 14.5454 95.7985 18.9558 94.0952C23.3661 92.392 32.2415 97.8588 33.6674 101.756Z" fill="#D4D4FE"/>
<path d="M60.2662 87.4988C61.6935 91.3959 59.2758 95.9374 54.8661 97.6426C50.4565 99.3478 45.7247 97.5709 44.2974 93.6739C42.8701 89.7768 45.111 80.6045 49.5207 78.8993C53.9304 77.1941 58.8389 83.6017 60.2662 87.4988Z" fill="#D4D4FE"/>
<path d="M59.2303 105.295C59.3674 107.667 57.5865 109.627 55.2525 109.673C52.9185 109.718 50.9152 107.831 50.7781 105.459C50.641 103.086 52.9814 98.6063 55.3155 98.561C57.6495 98.5157 59.0932 102.922 59.2303 105.295Z" fill="#D4D4FE"/>
<path d="M43.5132 96.7115C44.4642 99.3098 42.8518 102.337 39.9117 103.473C36.9717 104.609 33.8174 103.424 32.8664 100.826C31.9155 98.2273 32.4517 92.2597 35.3918 91.1236C38.3318 89.9876 42.5623 94.1133 43.5132 96.7115Z" fill="#D4D4FE"/>
<path d="M50.5035 95.0232C51.4545 97.6215 49.842 100.649 46.902 101.785C43.962 102.921 40.8077 101.736 39.8567 99.1373C38.9057 96.539 39.2268 89.9833 42.1668 88.8473C45.1068 87.7112 49.5525 92.425 50.5035 95.0232Z" fill="#FFCFCF"/>
<path d="M36.0074 116.001C37.5403 117.01 37.9615 119.364 36.9482 121.261C35.9349 123.157 33.8708 123.878 32.3379 122.869C30.805 121.861 28.3022 118.137 29.3155 116.24C30.3288 114.344 34.4746 114.993 36.0074 116.001Z" fill="#FFCFCF"/>
<path d="M49.54 99.7029C50.491 102.301 48.8785 105.328 45.9385 106.465C42.9985 107.601 39.8442 106.415 38.8932 103.817C37.9422 101.219 38.2633 94.663 41.2033 93.5269C44.1433 92.3909 48.589 97.1046 49.54 99.7029Z" fill="#E05364"/>
<path d="M37.4022 104.496C37.9966 106.12 36.9888 108.012 35.1513 108.722C33.3138 109.432 31.3423 108.691 30.748 107.067C30.1536 105.443 29.2046 100.28 31.0421 99.5696C32.8796 98.8596 36.8079 102.872 37.4022 104.496Z" fill="#E05364"/>
<path d="M69.758 88.5352C71.3033 92.7573 68.6831 97.6767 63.9055 99.5228C59.1279 101.369 54.0022 99.4427 52.4569 95.2205C50.9116 90.9984 55.7827 81.853 60.5603 80.0069C65.3379 78.1608 68.2126 84.313 69.758 88.5352Z" fill="#E05364"/>
<rect width="12.2142" height="7.48903" rx="2" transform="matrix(0.893763 -0.454899 0.418929 0.905099 50.8621 131.837)" fill="#A3D5E0"/>
<ellipse cx="1.65672" cy="1.82971" rx="1.65672" ry="1.82971" transform="matrix(0.930329 -0.366725 0.338437 0.940989 33.7278 103.477)" fill="white"/>
<ellipse cx="1.65672" cy="1.82971" rx="1.65672" ry="1.82971" transform="matrix(0.930329 -0.366725 0.338437 0.940989 35.7034 105.057)" fill="white"/>
<ellipse cx="1.65672" cy="1.82971" rx="1.65672" ry="1.82971" transform="matrix(0.930329 -0.366725 0.338437 0.940989 35.0815 101.37)" fill="white"/>
<ellipse cx="1.65672" cy="1.82971" rx="1.65672" ry="1.82971" transform="matrix(0.930329 -0.366725 0.338437 0.940989 37.0577 102.95)" fill="white"/>
<ellipse cx="1.65672" cy="1.82971" rx="1.65672" ry="1.82971" transform="matrix(0.930329 -0.366725 0.338437 0.940989 35.0719 93.5117)" fill="white"/>
<ellipse cx="1.65672" cy="1.82971" rx="1.65672" ry="1.82971" transform="matrix(0.930329 -0.366725 0.338437 0.940989 37.0476 95.0928)" fill="white"/>
<ellipse cx="1.65672" cy="1.82971" rx="1.65672" ry="1.82971" transform="matrix(0.930329 -0.366725 0.338437 0.940989 36.4252 91.4053)" fill="white"/>
<ellipse cx="1.65672" cy="1.82971" rx="1.65672" ry="1.82971" transform="matrix(0.930329 -0.366725 0.338437 0.940989 38.4015 92.9849)" fill="white"/>
<ellipse cx="1.82239" cy="2.01268" rx="1.82239" ry="2.01268" transform="matrix(0.930329 -0.366725 0.338437 0.940989 24.0232 98.0234)" fill="white"/>
<ellipse cx="1.82239" cy="2.01268" rx="1.82239" ry="2.01268" transform="matrix(0.930329 -0.366725 0.338437 0.940989 26.1971 99.7612)" fill="white"/>
<ellipse cx="1.82239" cy="2.01268" rx="1.82239" ry="2.01268" transform="matrix(0.930329 -0.366725 0.338437 0.940989 25.5128 95.7061)" fill="white"/>
<ellipse cx="1.82239" cy="2.01268" rx="1.82239" ry="2.01268" transform="matrix(0.930329 -0.366725 0.338437 0.940989 27.6866 97.4434)" fill="white"/>
<ellipse cx="1.65672" cy="1.82971" rx="1.65672" ry="1.82971" transform="matrix(0.930329 -0.366725 0.338437 0.940989 46.7908 92.8232)" fill="white"/>
<ellipse cx="1.65672" cy="1.82971" rx="1.65672" ry="1.82971" transform="matrix(0.930329 -0.366725 0.338437 0.940989 48.7665 94.4028)" fill="white"/>
<ellipse cx="1.65672" cy="1.82971" rx="1.65672" ry="1.82971" transform="matrix(0.930329 -0.366725 0.338437 0.940989 48.1445 90.7163)" fill="white"/>
<ellipse cx="1.65672" cy="1.82971" rx="1.65672" ry="1.82971" transform="matrix(0.930329 -0.366725 0.338437 0.940989 50.1207 92.2964)" fill="white"/>
<ellipse cx="1.65672" cy="1.82971" rx="1.65672" ry="1.82971" transform="matrix(0.930329 -0.366725 0.338437 0.940989 52.9503 86.4639)" fill="white"/>
<ellipse cx="1.65672" cy="1.82971" rx="1.65672" ry="1.82971" transform="matrix(0.930329 -0.366725 0.338437 0.940989 54.9265 88.0435)" fill="white"/>
<ellipse cx="1.65672" cy="1.82971" rx="1.65672" ry="1.82971" transform="matrix(0.930329 -0.366725 0.338437 0.940989 54.3042 84.3594)" fill="white"/>
<ellipse cx="1.65672" cy="1.82971" rx="1.65672" ry="1.82971" transform="matrix(0.930329 -0.366725 0.338437 0.940989 56.2803 85.938)" fill="white"/>
<ellipse cx="1.65672" cy="1.82971" rx="1.65672" ry="1.82971" transform="matrix(0.930329 -0.366725 0.338437 0.940989 18.9807 109.74)" fill="white"/>
<ellipse cx="1.65672" cy="1.82971" rx="1.65672" ry="1.82971" transform="matrix(0.930329 -0.366725 0.338437 0.940989 20.9564 111.32)" fill="white"/>
<ellipse cx="1.65672" cy="1.82971" rx="1.65672" ry="1.82971" transform="matrix(0.930329 -0.366725 0.338437 0.940989 20.3346 107.635)" fill="white"/>
<ellipse cx="1.65672" cy="1.82971" rx="1.65672" ry="1.82971" transform="matrix(0.930329 -0.366725 0.338437 0.940989 22.3108 109.214)" fill="white"/>
<ellipse cx="1.32537" cy="1.28079" rx="1.32537" ry="1.28079" transform="matrix(0.930329 -0.366725 0.338437 0.940989 26.483 111.03)" fill="white"/>
<ellipse cx="1.32537" cy="1.28079" rx="1.32537" ry="1.28079" transform="matrix(0.930329 -0.366725 0.338437 0.940989 27.9891 112.086)" fill="white"/>
<ellipse cx="1.32537" cy="1.28079" rx="1.32537" ry="1.28079" transform="matrix(0.930329 -0.366725 0.338437 0.940989 27.6162 109.482)" fill="white"/>
<ellipse cx="1.32537" cy="1.28079" rx="1.32537" ry="1.28079" transform="matrix(0.930329 -0.366725 0.338437 0.940989 29.1223 110.54)" fill="white"/>
<ellipse cx="1.1597" cy="1.28079" rx="1.1597" ry="1.28079" transform="matrix(0.930329 -0.366725 0.338437 0.940989 34.3833 113.418)" fill="white"/>
<ellipse cx="1.1597" cy="1.28079" rx="1.1597" ry="1.28079" transform="matrix(0.930329 -0.366725 0.338437 0.940989 35.7661 114.524)" fill="white"/>
<ellipse cx="1.1597" cy="1.28079" rx="1.1597" ry="1.28079" transform="matrix(0.930329 -0.366725 0.338437 0.940989 35.332 111.944)" fill="white"/>
<ellipse cx="1.1597" cy="1.28079" rx="1.1597" ry="1.28079" transform="matrix(0.930329 -0.366725 0.338437 0.940989 36.7142 113.051)" fill="white"/>
<ellipse cx="1.1597" cy="1.28079" rx="1.1597" ry="1.28079" transform="matrix(0.930329 -0.366725 0.338437 0.940989 34.3821 113.421)" fill="white"/>
<ellipse cx="1.1597" cy="1.28079" rx="1.1597" ry="1.28079" transform="matrix(0.930329 -0.366725 0.338437 0.940989 47.9728 110.107)" fill="white"/>
<ellipse cx="1.1597" cy="1.28079" rx="1.1597" ry="1.28079" transform="matrix(0.930329 -0.366725 0.338437 0.940989 54.7491 103.504)" fill="white"/>
<ellipse cx="1.1597" cy="1.28079" rx="1.1597" ry="1.28079" transform="matrix(0.930329 -0.366725 0.338437 0.940989 50.7969 100.343)" fill="white"/>
<ellipse cx="1.1597" cy="1.28079" rx="1.1597" ry="1.28079" transform="matrix(0.930329 -0.366725 0.338437 0.940989 60.1711 99.0078)" fill="white"/>
<ellipse cx="1.1597" cy="1.28079" rx="1.1597" ry="1.28079" transform="matrix(0.930329 -0.366725 0.338437 0.940989 40.0901 119.505)" fill="white"/>
<ellipse cx="1.1597" cy="1.28079" rx="1.1597" ry="1.28079" transform="matrix(0.930329 -0.366725 0.338437 0.940989 33.9248 121.937)" fill="white"/>
<ellipse cx="1.1597" cy="1.28079" rx="1.1597" ry="1.28079" transform="matrix(0.930329 -0.366725 0.338437 0.940989 41.6813 110.229)" fill="white"/>
<ellipse cx="1.65672" cy="1.82971" rx="1.65672" ry="1.82971" transform="matrix(0.930329 -0.366725 0.338437 0.940989 61.9504 82.1299)" fill="white"/>
<ellipse cx="1.65672" cy="1.82971" rx="1.65672" ry="1.82971" transform="matrix(0.930329 -0.366725 0.338437 0.940989 63.9263 83.7085)" fill="white"/>
<ellipse cx="1.65672" cy="1.82971" rx="1.65672" ry="1.82971" transform="matrix(0.930329 -0.366725 0.338437 0.940989 63.3044 80.0229)" fill="white"/>
<ellipse cx="1.65672" cy="1.82971" rx="1.65672" ry="1.82971" transform="matrix(0.930329 -0.366725 0.338437 0.940989 65.2806 81.604)" fill="white"/>
<ellipse cx="0.994029" cy="1.09782" rx="0.994029" ry="1.09782" transform="matrix(0.930329 -0.366725 0.338437 0.940989 59.666 89.4771)" fill="white"/>
<ellipse cx="0.994029" cy="1.09782" rx="0.994029" ry="1.09782" transform="matrix(0.930329 -0.366725 0.338437 0.940989 60.8513 90.4263)" fill="white"/>
<ellipse cx="0.994029" cy="1.09782" rx="0.994029" ry="1.09782" transform="matrix(0.930329 -0.366725 0.338437 0.940989 60.4781 88.2144)" fill="white"/>
<ellipse cx="0.994029" cy="1.09782" rx="0.994029" ry="1.09782" transform="matrix(0.930329 -0.366725 0.338437 0.940989 61.6638 89.1616)" fill="white"/>
<ellipse cx="0.994029" cy="1.09782" rx="0.994029" ry="1.09782" transform="matrix(0.930329 -0.366725 0.338437 0.940989 54.7391 95.3516)" fill="white"/>
<ellipse cx="0.994029" cy="1.09782" rx="0.994029" ry="1.09782" transform="matrix(0.930329 -0.366725 0.338437 0.940989 55.9247 96.2988)" fill="white"/>
<ellipse cx="0.994029" cy="1.09782" rx="0.994029" ry="1.09782" transform="matrix(0.930329 -0.366725 0.338437 0.940989 55.5515 94.0879)" fill="white"/>
<ellipse cx="0.994029" cy="1.09782" rx="0.994029" ry="1.09782" transform="matrix(0.930329 -0.366725 0.338437 0.940989 56.7374 95.0361)" fill="white"/>
<ellipse cx="0.994029" cy="1.09782" rx="0.994029" ry="1.09782" transform="matrix(0.930329 -0.366725 0.338437 0.940989 43.2788 104.587)" fill="white"/>
<ellipse cx="0.994029" cy="1.09782" rx="0.994029" ry="1.09782" transform="matrix(0.930329 -0.366725 0.338437 0.940989 44.4644 105.535)" fill="white"/>
<ellipse cx="0.994029" cy="1.09782" rx="0.994029" ry="1.09782" transform="matrix(0.930329 -0.366725 0.338437 0.940989 44.0912 103.325)" fill="white"/>
<ellipse cx="0.994029" cy="1.09782" rx="0.994029" ry="1.09782" transform="matrix(0.930329 -0.366725 0.338437 0.940989 45.2765 104.272)" fill="white"/>
<ellipse cx="1.65672" cy="1.82971" rx="1.65672" ry="1.82971" transform="matrix(0.930329 -0.366725 0.338437 0.940989 44.4343 84.3159)" fill="white"/>
<ellipse cx="1.65672" cy="1.82971" rx="1.65672" ry="1.82971" transform="matrix(0.930329 -0.366725 0.338437 0.940989 46.4106 85.8955)" fill="white"/>
<ellipse cx="1.65672" cy="1.82971" rx="1.65672" ry="1.82971" transform="matrix(0.930329 -0.366725 0.338437 0.940989 45.7894 82.209)" fill="white"/>
<ellipse cx="1.65672" cy="1.82971" rx="1.65672" ry="1.82971" transform="matrix(0.930329 -0.366725 0.338437 0.940989 47.7656 83.7891)" fill="white"/>
<path fill-rule="evenodd" clip-rule="evenodd" d="M81.4921 116.475C89.8451 116.42 96.5914 112.198 96.5606 107.043C96.5566 106.37 96.4371 105.714 96.2136 105.082L66.8756 104.672C66.5035 105.49 66.3068 106.352 66.3121 107.242C66.3429 112.396 73.1392 116.53 81.4921 116.475Z" fill="#FBF4EE"/>
<rect width="13.2801" height="3.86787" transform="matrix(0.998199 -0.0599928 0.0547544 0.9985 61.5271 163.007)" fill="#FFF8F2"/>
<rect width="31.9371" height="13.1192" transform="matrix(0.999928 0.0120369 -0.0109827 0.99994 74.1465 167.934)" fill="#FFF8F2"/>
<rect width="21.1137" height="11.8897" transform="matrix(0.999928 0.0120369 -0.0109827 0.99994 53.7013 169.429)" fill="#FFF8F2"/>
<rect width="13.4496" height="4.55866" transform="matrix(0.84294 0.538007 -0.503233 0.864151 79.2029 161.655)" fill="#FFF8F2"/>
<defs>
<filter id="filter0_d_17_1580" x="61.2021" y="182.949" width="81.9891" height="103.912" filterUnits="userSpaceOnUse" color-interpolation-filters="sRGB">
<feFlood flood-opacity="0" result="BackgroundImageFix"/>
<feColorMatrix in="SourceAlpha" type="matrix" values="0 0 0 0 0 0 0 0 0 0 0 0 0 0 0 0 0 0 127 0" result="hardAlpha"/>
<feOffset dy="4"/>
<feGaussianBlur stdDeviation="2"/>
<feComposite in2="hardAlpha" operator="out"/>
<feColorMatrix type="matrix" values="0 0 0 0 0 0 0 0 0 0 0 0 0 0 0 0 0 0 0.25 0"/>
<feBlend mode="normal" in2="BackgroundImageFix" result="effect1_dropShadow_17_1580"/>
<feBlend mode="normal" in="SourceGraphic" in2="effect1_dropShadow_17_1580" result="shape"/>
</filter>
<filter id="filter1_d_17_1580" x="32.5751" y="192.249" width="50.2605" height="89.7197" filterUnits="userSpaceOnUse" color-interpolation-filters="sRGB">
<feFlood flood-opacity="0" result="BackgroundImageFix"/>
<feColorMatrix in="SourceAlpha" type="matrix" values="0 0 0 0 0 0 0 0 0 0 0 0 0 0 0 0 0 0 127 0" result="hardAlpha"/>
<feOffset dy="4"/>
<feGaussianBlur stdDeviation="2"/>
<feComposite in2="hardAlpha" operator="out"/>
<feColorMatrix type="matrix" values="0 0 0 0 0 0 0 0 0 0 0 0 0 0 0 0 0 0 0.25 0"/>
<feBlend mode="normal" in2="BackgroundImageFix" result="effect1_dropShadow_17_1580"/>
<feBlend mode="normal" in="SourceGraphic" in2="effect1_dropShadow_17_1580" result="shape"/>
</filter>
<filter id="filter2_d_17_1580" x="51.1454" y="179.037" width="48.423" height="108.311" filterUnits="userSpaceOnUse" color-interpolation-filters="sRGB">
<feFlood flood-opacity="0" result="BackgroundImageFix"/>
<feColorMatrix in="SourceAlpha" type="matrix" values="0 0 0 0 0 0 0 0 0 0 0 0 0 0 0 0 0 0 127 0" result="hardAlpha"/>
<feOffset dy="4"/>
<feGaussianBlur stdDeviation="2"/>
<feComposite in2="hardAlpha" operator="out"/>
<feColorMatrix type="matrix" values="0 0 0 0 0 0 0 0 0 0 0 0 0 0 0 0 0 0 0.25 0"/>
<feBlend mode="normal" in2="BackgroundImageFix" result="effect1_dropShadow_17_1580"/>
<feBlend mode="normal" in="SourceGraphic" in2="effect1_dropShadow_17_1580" result="shape"/>
</filter>
<filter id="filter3_d_17_1580" x="18.8445" y="176.217" width="46.2423" height="97.6348" filterUnits="userSpaceOnUse" color-interpolation-filters="sRGB">
<feFlood flood-opacity="0" result="BackgroundImageFix"/>
<feColorMatrix in="SourceAlpha" type="matrix" values="0 0 0 0 0 0 0 0 0 0 0 0 0 0 0 0 0 0 127 0" result="hardAlpha"/>
<feOffset dy="4"/>
<feGaussianBlur stdDeviation="2"/>
<feComposite in2="hardAlpha" operator="out"/>
<feColorMatrix type="matrix" values="0 0 0 0 0 0 0 0 0 0 0 0 0 0 0 0 0 0 0.25 0"/>
<feBlend mode="normal" in2="BackgroundImageFix" result="effect1_dropShadow_17_1580"/>
<feBlend mode="normal" in="SourceGraphic" in2="effect1_dropShadow_17_1580" result="shape"/>
</filter>
<filter id="filter4_d_17_1580" x="43.2057" y="10.1782" width="75.892" height="95.1792" filterUnits="userSpaceOnUse" color-interpolation-filters="sRGB">
<feFlood flood-opacity="0" result="BackgroundImageFix"/>
<feColorMatrix in="SourceAlpha" type="matrix" values="0 0 0 0 0 0 0 0 0 0 0 0 0 0 0 0 0 0 127 0" result="hardAlpha"/>
<feOffset dy="4"/>
<feGaussianBlur stdDeviation="2"/>
<feComposite in2="hardAlpha" operator="out"/>
<feColorMatrix type="matrix" values="0 0 0 0 0 0 0 0 0 0 0 0 0 0 0 0 0 0 0.25 0"/>
<feBlend mode="normal" in2="BackgroundImageFix" result="effect1_dropShadow_17_1580"/>
<feBlend mode="normal" in="SourceGraphic" in2="effect1_dropShadow_17_1580" result="shape"/>
</filter>
</defs>
</svg>
